<svg xmlns="http://www.w3.org/2000/svg" viewBox="0 0 960 640" font-family="Microsoft YaHei, PingFang SC, sans-serif">
  <defs>
    <marker id="ar3" markerWidth="9" markerHeight="9" refX="7" refY="4.5" orient="auto">
      <path d="M0,0 L9,4.5 L0,9 Z" fill="#475569"/>
    </marker>
    <marker id="ar3p" markerWidth="9" markerHeight="9" refX="7" refY="4.5" orient="auto">
      <path d="M0,0 L9,4.5 L0,9 Z" fill="#7c3aed"/>
    </marker>
    <marker id="ar3c" markerWidth="9" markerHeight="9" refX="7" refY="4.5" orient="auto">
      <path d="M0,0 L9,4.5 L0,9 Z" fill="#0891b2"/>
    </marker>
  </defs>
  <rect width="960" height="640" fill="#f8fafc"/>
  <text x="480" y="40" text-anchor="middle" font-size="23" font-weight="bold" fill="#0f172a">论文时间线与思想传承（2019 → 2026）</text>
  <text x="480" y="64" text-anchor="middle" font-size="12" fill="#64748b">主干谱系 · 横轴非等比（2022~2023 高密度期已放大）· 每一步都踩在前一步的肩膀上</text>

  <!-- 主时间轴 -->
  <line x1="60" y1="340" x2="890" y2="340" stroke="#94a3b8" stroke-width="3" marker-end="url(#ar3)"/>
  <g font-size="11" font-weight="bold" fill="#64748b">
    <line x1="70" y1="334" x2="70" y2="346" stroke="#94a3b8" stroke-width="2"/><text x="70" y="362" text-anchor="middle">2019</text>
    <line x1="220" y1="334" x2="220" y2="346" stroke="#94a3b8" stroke-width="2"/><text x="220" y="362" text-anchor="middle">2020</text>
    <line x1="330" y1="334" x2="330" y2="346" stroke="#94a3b8" stroke-width="2"/><text x="330" y="362" text-anchor="middle">2021</text>
    <line x1="460" y1="334" x2="460" y2="346" stroke="#94a3b8" stroke-width="2"/><text x="460" y="362" text-anchor="middle">2022</text>
    <line x1="620" y1="334" x2="620" y2="346" stroke="#94a3b8" stroke-width="2"/><text x="620" y="362" text-anchor="middle">2023</text>
    <line x1="740" y1="334" x2="740" y2="346" stroke="#94a3b8" stroke-width="2"/><text x="740" y="362" text-anchor="middle">2024</text>
    <line x1="820" y1="334" x2="820" y2="346" stroke="#94a3b8" stroke-width="2"/><text x="820" y="362" text-anchor="middle">2025</text>
    <line x1="880" y1="334" x2="880" y2="346" stroke="#94a3b8" stroke-width="2"/><text x="880" y="362" text-anchor="middle">2026</text>
  </g>

  <!-- 上侧节点（连线：轴 → 块） -->
  <line x1="170" y1="340" x2="170" y2="274" stroke="#2563eb" stroke-width="2"/>
  <circle cx="170" cy="340" r="6" fill="#2563eb"/>
  <text x="170" y="246" text-anchor="middle" font-size="12" font-weight="bold" fill="#0f172a">GPT-3 few-shot</text>
  <text x="170" y="264" text-anchor="middle" font-size="10.5" fill="#64748b">2020 · in-context</text>

  <line x1="390" y1="340" x2="390" y2="274" stroke="#7c3aed" stroke-width="2"/>
  <circle cx="390" cy="340" r="6" fill="#7c3aed"/>
  <text x="390" y="246" text-anchor="middle" font-size="12" font-weight="bold" fill="#0f172a">Chain-of-Thought</text>
  <text x="390" y="264" text-anchor="middle" font-size="10.5" fill="#64748b">2022 · 涌现 +39pp</text>

  <line x1="540" y1="340" x2="540" y2="274" stroke="#ea580c" stroke-width="2"/>
  <circle cx="540" cy="340" r="6" fill="#ea580c"/>
  <text x="540" y="246" text-anchor="middle" font-size="12" font-weight="bold" fill="#0f172a">ReAct</text>
  <text x="540" y="264" text-anchor="middle" font-size="10.5" fill="#64748b">2022 · Agent 骨架</text>

  <line x1="680" y1="340" x2="680" y2="274" stroke="#ea580c" stroke-width="2"/>
  <circle cx="680" cy="340" r="6" fill="#ea580c"/>
  <text x="680" y="246" text-anchor="middle" font-size="12" font-weight="bold" fill="#0f172a">Reflexion</text>
  <text x="680" y="264" text-anchor="middle" font-size="10.5" fill="#64748b">2023 · 错题本</text>

  <line x1="890" y1="340" x2="890" y2="274" stroke="#2563eb" stroke-width="2"/>
  <circle cx="890" cy="340" r="6" fill="#2563eb"/>
  <text x="890" y="246" text-anchor="middle" font-size="12" font-weight="bold" fill="#0f172a">Prompt Report</text>
  <text x="890" y="264" text-anchor="middle" font-size="10.5" fill="#64748b">2024 · 58 技术字典</text>

  <!-- 下侧节点 -->
  <line x1="245" y1="340" x2="245" y2="406" stroke="#0891b2" stroke-width="2"/>
  <circle cx="245" cy="340" r="6" fill="#0891b2"/>
  <text x="245" y="432" text-anchor="middle" font-size="12" font-weight="bold" fill="#0f172a">RAG 原论文</text>
  <text x="245" y="450" text-anchor="middle" font-size="10.5" fill="#64748b">2020 · 开卷考试</text>

  <line x1="470" y1="340" x2="470" y2="406" stroke="#7c3aed" stroke-width="2"/>
  <circle cx="470" cy="340" r="6" fill="#7c3aed"/>
  <text x="470" y="432" text-anchor="middle" font-size="12" font-weight="bold" fill="#0f172a">Self-Consistency</text>
  <text x="470" y="450" text-anchor="middle" font-size="10.5" fill="#64748b">2022 · 投票 +17.9</text>

  <line x1="625" y1="340" x2="625" y2="406" stroke="#ea580c" stroke-width="2"/>
  <circle cx="625" cy="340" r="6" fill="#ea580c"/>
  <text x="625" y="432" text-anchor="middle" font-size="12" font-weight="bold" fill="#0f172a">Toolformer</text>
  <text x="625" y="450" text-anchor="middle" font-size="10.5" fill="#64748b">2023 · 自学调 API</text>

  <line x1="730" y1="340" x2="730" y2="406" stroke="#7c3aed" stroke-width="2"/>
  <circle cx="730" cy="340" r="6" fill="#7c3aed"/>
  <text x="730" y="432" text-anchor="middle" font-size="12" font-weight="bold" fill="#0f172a">Tree of Thoughts</text>
  <text x="730" y="450" text-anchor="middle" font-size="10.5" fill="#64748b">2023 · 思维树</text>

  <line x1="845" y1="340" x2="845" y2="406" stroke="#0891b2" stroke-width="2"/>
  <circle cx="845" cy="340" r="6" fill="#0891b2"/>
  <text x="845" y="432" text-anchor="middle" font-size="12" font-weight="bold" fill="#0f172a">MemGPT</text>
  <text x="845" y="450" text-anchor="middle" font-size="10.5" fill="#64748b">2023 · 分层记忆</text>

  <!-- 传承箭头：上走廊 -->
  <path d="M 170 230 V 205 H 390 V 230" fill="none" stroke="#7c3aed" stroke-width="1.8" marker-end="url(#ar3p)"/>
  <path d="M 390 230 V 178 H 540 V 230" fill="none" stroke="#7c3aed" stroke-width="1.8" marker-end="url(#ar3p)"/>
  <path d="M 540 230 V 205 H 680 V 230" fill="none" stroke="#ea580c" stroke-width="1.8" marker-end="url(#ar3p)"/>
  <!-- 传承箭头：下走廊 -->
  <path d="M 470 456 V 482 H 730 V 456" fill="none" stroke="#7c3aed" stroke-width="1.8" marker-end="url(#ar3p)"/>
  <path d="M 245 456 V 505 H 845 V 456" fill="none" stroke="#0891b2" stroke-width="1.8" marker-end="url(#ar3c)"/>

  <!-- 图例行 -->
  <g font-size="11" fill="#334155">
    <text x="70" y="530" font-weight="bold" fill="#0f172a">色区：</text>
    <circle cx="128" cy="526" r="5" fill="#2563eb"/><text x="138" y="530">基础/提示</text>
    <circle cx="216" cy="526" r="5" fill="#7c3aed"/><text x="226" y="530">推理增强</text>
    <circle cx="304" cy="526" r="5" fill="#ea580c"/><text x="314" y="530">Agent 行为</text>
    <circle cx="392" cy="526" r="5" fill="#0891b2"/><text x="402" y="530">知识与记忆</text>
    <text x="480" y="530" fill="#64748b">CoT→SC/ToT：推理主干 · ReAct→Reflexion：行为主干 · RAG→MemGPT：记忆主干</text>
  </g>

  <!-- 演进条 -->
  <rect x="60" y="548" width="840" height="62" rx="8" fill="#ffffff" stroke="#cbd5e1" stroke-width="1.5" stroke-dasharray="6,4"/>
  <text x="480" y="574" text-anchor="middle" font-size="12" font-weight="bold" fill="#334155">2025 → 2026：主干仍在延伸</text>
  <text x="480" y="596" text-anchor="middle" font-size="10.5" fill="#64748b">推理模型（test-time compute）· MCP 工具生态 · 上下文工程 · 多 Agent 与评估生产化 —— 以 02-扩展论文索引 / 03-博客清单 跟进</text>
</svg>
